<svg xmlns="http://www.w3.org/2000/svg" xmlns:xlink="http://www.w3.org/1999/xlink" version="1.1" x="0px" y="0px" viewBox="0 0 100 100" enable-background="new 0 0 100 100" xml:space="preserve"><g><g><polygon fill="#ff9300" points="50,97.909 41.182,92.818 41.534,92.208 50,97.096 58.466,92.208 58.818,92.818   "></polygon><rect x="49.648" y="87.524" fill="#ff9300" width="0.704" height="9.979"></rect></g><g><polygon fill="#ff9300" points="8.624,36.267 7.92,36.267 7.92,26.085 16.738,20.994 17.09,21.604 8.624,26.491   "></polygon><rect x="7.604" y="28.431" transform="matrix(0.866 0.5 -0.5 0.866 16.0785 -2.4405)" fill="#ff9300" width="9.979" height="0.704"></rect></g><polygon fill="#ff9300" points="16.738,79.045 7.92,73.955 7.92,63.773 8.624,63.773 8.624,73.548 17.09,78.436  "></polygon><polygon fill="#ff9300" points="58.466,7.792 50,2.904 41.534,7.792 41.182,7.182 50,2.091 58.818,7.182  "></polygon><polygon fill="#ff9300" points="83.262,79.045 82.91,78.436 91.376,73.548 91.376,63.773 92.08,63.773 92.08,73.955  "></polygon><g><polygon fill="#ff9300" points="92.08,36.267 91.376,36.267 91.376,26.491 82.91,21.604 83.262,20.994 92.08,26.085   "></polygon><rect x="87.055" y="23.793" transform="matrix(0.5001 0.866 -0.866 0.5001 68.6236 -61.3037)" fill="#ff9300" width="0.704" height="9.979"></rect></g><g><rect x="49.648" y="50.039" fill="#ff9300" width="0.704" height="9.979"></rect><rect x="53.969" y="42.555" transform="matrix(0.5001 0.866 -0.866 0.5001 68.3305 -23.2719)" fill="#ff9300" width="0.704" height="9.979"></rect><rect x="40.69" y="47.193" transform="matrix(0.866 0.5 -0.5 0.866 29.8924 -16.4698)" fill="#ff9300" width="9.979" height="0.704"></rect><rect x="49.648" y="50.019" fill="#ff9300" width="0.704" height="4.916"></rect><rect x="51.777" y="46.333" transform="matrix(0.5001 0.866 -0.866 0.5001 68.3132 -20.7506)" fill="#ff9300" width="0.704" height="4.916"></rect><rect x="45.414" y="48.438" transform="matrix(0.866 0.5 -0.5 0.866 30.8094 -17.3992)" fill="#ff9300" width="4.916" height="0.704"></rect></g></g><g><g><g opacity="0.85"><path fill="#ff9300" d="M49.93,68.89c-0.001,0.016-0.001,0.033-0.002,0.049c0.003-0.008,0.008-0.016,0.016-0.025     C49.949,68.903,49.939,68.898,49.93,68.89z"></path><path fill="#ff9300" d="M49.925,68.984c0,0.003,0,0.006,0,0.009c0.001,0.003,0.003,0.005,0.004,0.007     C49.928,68.995,49.926,68.99,49.925,68.984z"></path><path fill="#ff9300" d="M49.937,69.07c0.003-0.015,0.001-0.03-0.002-0.044C49.932,69.039,49.932,69.053,49.937,69.07z"></path><path fill="#ff9300" d="M49.948,69.002c-0.007,0.005-0.014,0.008-0.019-0.001c0,0,0,0,0,0c0.002,0.009,0.004,0.017,0.006,0.026     C49.938,69.017,49.942,69.009,49.948,69.002z"></path><path fill="#ff9300" d="M49.948,69.002c0.006-0.005,0.013-0.013,0.016-0.016C49.958,68.99,49.953,68.996,49.948,69.002z"></path><path fill="#ff9300" d="M50.107,69.023c0.005,0.009-0.04,0.007-0.03,0.024c0.013,0.04,0.033,0.074,0.033,0.112     c0.01,0.017-0.04,0.044-0.03,0.061c0.013,0.04,0.073,0.143,0.07,0.082c-0.007-0.091-0.019-0.15-0.027-0.232     c-0.018-0.066-0.04-0.13-0.056-0.198c-0.002-0.019,0.001-0.037,0.004-0.055c-0.007,0.023-0.014,0.047-0.021,0.074     C50.039,68.927,50.097,68.969,50.107,69.023z"></path><path fill="#ff9300" d="M49.957,68.528c0.005,0.008,0.015,0.026,0.015,0.026c-0.032,0.038-0.02,0.078-0.007,0.118     c0.007-0.006,0.015-0.012,0.022-0.018c-0.003-0.023-0.015-0.026-0.025-0.005c0.027-0.047,0.032-0.091,0.027-0.136     C49.978,68.515,49.964,68.515,49.957,68.528z"></path><path fill="#ff9300" d="M49.986,68.486c0.001,0.009,0.003,0.018,0.004,0.026c0.001,0,0.003-0.001,0.004-0.001     c-0.002-0.009-0.004-0.018-0.007-0.026C49.987,68.486,49.987,68.486,49.986,68.486z"></path><path fill="#ff9300" d="M49.978,69.251c0.002,0.114,0,0.221-0.005,0.326c0.009,0.008,0.019,0.014,0.014,0.024     c-0.008,0.008-0.013,0.016-0.016,0.025c-0.001,0.015-0.001,0.031-0.002,0.046c0.001,0.005,0.002,0.011,0.004,0.016c0,0,0,0,0,0     c0.005,0.009,0.012,0.006,0.019,0.001c0.005-0.006,0.01-0.011,0.016-0.016c-0.004,0.003-0.01,0.011-0.016,0.016     c-0.006,0.007-0.01,0.015-0.013,0.025c0.003,0.014,0.004,0.028,0.002,0.044c-0.005-0.017-0.005-0.031-0.002-0.044     c-0.002-0.009-0.004-0.017-0.006-0.026c-0.001-0.002-0.003-0.005-0.004-0.007c-0.002,0.035-0.004,0.07-0.006,0.104     c0.001,0.008,0.002,0.016,0.004,0.022c0.006,0.025,0.012,0.05-0.01,0.066c0,0.006-0.001,0.012-0.001,0.019     c0.001-0.001,0.002-0.002,0.004-0.004c-0.001,0.003-0.003,0.005-0.004,0.007c-0.002,0.026-0.004,0.052-0.006,0.079     c0.009,0.017,0.019,0.035,0.026,0.052c0,0-0.015,0.012-0.022,0.018c0.011,0.007,0.019,0.017,0.022,0.029     c0.013-0.014,0.028-0.027,0.038-0.039c0.023-0.018-0.045-0.04-0.003-0.06c-0.042,0.021,0.025,0.043,0.003,0.06     c-0.009,0.012-0.024,0.025-0.038,0.039c0.008,0.025,0,0.057-0.022,0.083c-0.019-0.032-0.001-0.059,0.022-0.083     c-0.004-0.012-0.011-0.022-0.022-0.029c0.007-0.006,0.022-0.018,0.022-0.018c-0.006-0.018-0.017-0.035-0.026-0.052     c-0.004,0.051-0.008,0.104-0.012,0.157c-0.029,0.342-0.024,0.657-0.045,1.012c-0.013,0.192-0.032,0.377-0.059,0.558     c-0.053,0.361,0.008,0.691-0.106,1.056c-0.04,0.14-0.018,0.4-0.014,0.535c0.075,0.181,0.268,0.087,0.279,0.079     c0.165-0.111,0.073-0.198,0.17-0.425c-0.055,0.154-0.106-0.114,0.007-0.26c0.172-0.211,0.034-0.512,0.078-0.772     c0.011-0.065,0.003-0.134,0.007-0.212c0.059-0.403-0.014-0.778-0.001-1.202c0-0.112-0.042-0.211-0.065-0.306     c-0.008-0.069,0.014-0.143,0.014-0.199c0-0.088-0.016-0.164-0.036-0.237c0.008,0.081,0.02,0.141,0.027,0.232     c0.003,0.061-0.058-0.042-0.07-0.082c-0.01-0.017,0.04-0.044,0.03-0.061c0-0.037-0.02-0.072-0.033-0.112     c-0.01-0.017,0.035-0.015,0.03-0.024c-0.01-0.055-0.068-0.097-0.056-0.132c0.007-0.026,0.014-0.05,0.021-0.074     c0.002-0.015,0.004-0.029,0.003-0.045c-0.004-0.01-0.008-0.02-0.011-0.03c-0.014,0.008-0.031,0.011-0.048,0.013     c0.002-0.014,0.012-0.035,0.015-0.049c-0.002,0.014-0.012,0.035-0.015,0.049c0.017-0.003,0.034-0.006,0.048-0.013     c-0.026-0.072-0.05-0.155-0.07-0.232c-0.001,0-0.003,0.001-0.004,0.001c0.005,0.045,0,0.089-0.027,0.136     c0.01-0.02,0.022-0.018,0.025,0.005c-0.007,0.006-0.015,0.012-0.023,0.018c-0.013-0.04-0.025-0.08,0.007-0.118     c0,0-0.01-0.017-0.015-0.026c0.006-0.013,0.02-0.012,0.032-0.015c-0.001-0.009-0.002-0.018-0.004-0.027     C50.007,69.192,49.978,69.251,49.978,69.251z"></path><path fill="#ff9300" d="M49.977,69.714c-0.001-0.006-0.002-0.014-0.004-0.022c-0.002,0.029-0.004,0.058-0.006,0.088     C49.989,69.765,49.983,69.74,49.977,69.714z"></path></g><g opacity="0.85"><path fill="#ff9300" d="M46.405,71.401l0.084,0.051c-0.013-0.011-0.024-0.024-0.035-0.039     C46.438,71.399,46.423,71.402,46.405,71.401z"></path><path fill="#ff9300" d="M46.566,71.5l0.015,0.009l0.015,0.004C46.586,71.509,46.576,71.504,46.566,71.5z"></path><path fill="#ff9300" d="M46.72,71.576c-0.025-0.017-0.051-0.03-0.076-0.042C46.663,71.549,46.688,71.563,46.72,71.576z"></path><path fill="#ff9300" d="M46.607,71.498c0.006,0.011,0.007,0.02-0.011,0.015l-0.001,0l0.048,0.021     C46.629,71.522,46.617,71.51,46.607,71.498z"></path><path fill="#ff9300" d="M46.607,71.498c-0.008-0.012-0.015-0.023-0.019-0.03C46.593,71.478,46.6,71.488,46.607,71.498z"></path><path fill="#ff9300" d="M46.724,71.382c0.017,0.004-0.009,0.041,0.026,0.05c0.076,0.029,0.145,0.046,0.21,0.083     c0.035,0.008,0.056,0.079,0.091,0.087c0.076,0.029,0.284,0.079,0.178,0.021c-0.161-0.085-0.269-0.134-0.415-0.208     c-0.123-0.049-0.249-0.1-0.37-0.149c-0.034-0.017-0.063-0.038-0.092-0.058c0.038,0.03,0.076,0.06,0.117,0.091     C46.523,71.344,46.625,71.336,46.724,71.382z"></path><path fill="#ff9300" d="M45.791,71.016c0.017,0.004,0.052,0.013,0.052,0.013c0.05,0.066,0.126,0.095,0.201,0.124l-0.02-0.037     c-0.041-0.021-0.052-0.012-0.022,0.016c-0.067-0.07-0.141-0.118-0.222-0.159C45.78,70.986,45.772,70.998,45.791,71.016z"></path><path fill="#ff9300" d="M45.734,70.949c0.016,0.008,0.032,0.016,0.048,0.023l0-0.004c-0.017-0.007-0.033-0.014-0.049-0.021     L45.734,70.949z"></path><path fill="#ff9300" d="M47.055,71.721c0.198,0.112,0.382,0.221,0.561,0.33c0.018,0,0.033-0.003,0.049,0.013     c0.01,0.015,0.022,0.027,0.034,0.038l0.078,0.048c0.009,0.004,0.019,0.009,0.03,0.013l0.001,0     c0.017,0.004,0.016-0.004,0.011-0.015c-0.008-0.01-0.014-0.02-0.02-0.03c0.004,0.007,0.012,0.018,0.02,0.03     c0.01,0.012,0.021,0.024,0.036,0.036c0.026,0.012,0.052,0.025,0.076,0.042c-0.032-0.012-0.057-0.027-0.076-0.042l-0.048-0.02     l-0.015-0.004l0.177,0.11c0.014,0.007,0.027,0.013,0.04,0.019c0.047,0.02,0.093,0.04,0.109,0.074l0.032,0.02l-0.004-0.007     l0.01,0.011l0.134,0.084c0.034,0.01,0.07,0.018,0.103,0.03c0,0,0.013,0.025,0.019,0.037c0.018-0.003,0.039,0.001,0.062,0.01     c-0.018-0.026-0.033-0.052-0.049-0.072c-0.019-0.037-0.091,0-0.106-0.058c0.015,0.058,0.087,0.021,0.106,0.058     c0.016,0.02,0.031,0.046,0.049,0.072c0.047,0.018,0.099,0.057,0.133,0.102c-0.065-0.016-0.103-0.059-0.133-0.102     c-0.023-0.009-0.044-0.012-0.062-0.01c-0.006-0.012-0.019-0.037-0.019-0.037c-0.034-0.012-0.069-0.02-0.103-0.03     c0.087,0.055,0.176,0.11,0.266,0.167c0.233,0.148,0.461,0.286,0.691,0.424c0.245,0.146,0.49,0.293,0.746,0.446     c0.123-0.068,0.257-0.141,0.395-0.216c0.339-0.181,0.669-0.349,0.996-0.507c0.652-0.316,1.192-0.698,1.881-0.964     c0.263-0.106,0.702-0.384,0.934-0.523c0.276-0.246,0.017-0.319-0.003-0.32c-0.275-0.032-0.38,0.135-0.821,0.277     c0.295-0.107-0.144,0.206-0.453,0.254c-0.451,0.062-0.903,0.482-1.376,0.704c-0.118,0.055-0.234,0.131-0.37,0.206     c-0.232,0.113-0.453,0.234-0.67,0.36c-0.108,0.064-0.215,0.128-0.323,0.193l-0.161,0.098l-0.02,0.012     c-0.002,0.001-0.001,0.001-0.001,0.001l-0.001,0.002l-0.004,0.005l-0.006,0l-0.004-0.001l-0.045-0.025l-0.192-0.107     c-0.129-0.072-0.259-0.147-0.39-0.225c-0.195-0.112-0.387-0.174-0.562-0.249c-0.124-0.062-0.24-0.155-0.338-0.211     c-0.153-0.088-0.293-0.15-0.429-0.206c0.144,0.072,0.256,0.128,0.415,0.208c0.106,0.058-0.102,0.008-0.178-0.021     c-0.035-0.008-0.056-0.079-0.091-0.087c-0.065-0.037-0.134-0.054-0.21-0.083c-0.035-0.008-0.009-0.046-0.026-0.05     c-0.1-0.046-0.201-0.038-0.256-0.083c-0.041-0.032-0.079-0.062-0.117-0.091c-0.024-0.017-0.049-0.033-0.076-0.047l-0.057-0.02     c0.007,0.02,0.003,0.037-0.001,0.055c-0.02-0.016-0.058-0.046-0.078-0.062c0.02,0.016,0.058,0.046,0.078,0.062     c0.004-0.017,0.007-0.035,0.001-0.055c-0.138-0.049-0.293-0.111-0.436-0.171l0,0.005c0.08,0.041,0.154,0.089,0.222,0.159     c-0.03-0.029-0.019-0.037,0.022-0.016l0.019,0.037c-0.076-0.029-0.152-0.058-0.201-0.124c0,0-0.035-0.008-0.052-0.013     c-0.019-0.018-0.011-0.03-0.009-0.043c-0.015-0.008-0.031-0.015-0.048-0.023C46.967,71.637,47.055,71.721,47.055,71.721z"></path><path fill="#ff9300" d="M47.857,72.186c-0.012-0.006-0.025-0.012-0.039-0.019l0.149,0.093     C47.95,72.225,47.903,72.205,47.857,72.186z"></path></g></g><g><g opacity="0.85"><path fill="#ff9300" d="M29.499,42.426l0.002-0.098c-0.003,0.017-0.008,0.033-0.016,0.05C29.48,42.399,29.49,42.41,29.499,42.426     z"></path><path fill="#ff9300" d="M29.503,42.237l0-0.017L29.5,42.204C29.501,42.216,29.502,42.226,29.503,42.237z"></path><path fill="#ff9300" d="M29.492,42.066c-0.003,0.03-0.001,0.059,0.002,0.087C29.497,42.128,29.497,42.099,29.492,42.066z"></path><path fill="#ff9300" d="M29.481,42.202c0.007-0.011,0.014-0.016,0.019,0.002l0,0.001l-0.006-0.052     C29.491,42.171,29.487,42.188,29.481,42.202z"></path><path fill="#ff9300" d="M29.481,42.202c-0.006,0.012-0.013,0.025-0.016,0.032C29.471,42.225,29.476,42.214,29.481,42.202z"></path><path fill="#ff9300" d="M29.322,42.159c-0.005-0.017,0.04-0.013,0.03-0.047c-0.013-0.08-0.033-0.149-0.033-0.224     c-0.01-0.034,0.04-0.088,0.03-0.122c-0.013-0.08-0.073-0.285-0.07-0.165c0.007,0.182,0.019,0.3,0.027,0.463     c0.019,0.131,0.038,0.266,0.056,0.395c0.002,0.038-0.001,0.073-0.004,0.109c0.007-0.048,0.013-0.096,0.021-0.147     C29.39,42.352,29.332,42.268,29.322,42.159z"></path><path fill="#ff9300" d="M29.472,43.15c-0.005-0.017-0.015-0.051-0.015-0.051c0.032-0.076,0.02-0.156,0.007-0.237l-0.022,0.036     c0.003,0.046,0.015,0.051,0.025,0.01c-0.027,0.093-0.032,0.181-0.027,0.272C29.451,43.174,29.465,43.175,29.472,43.15z"></path><path fill="#ff9300" d="M29.443,43.233c-0.001-0.018-0.003-0.036-0.004-0.053l-0.004,0.002c0.002,0.018,0.004,0.036,0.007,0.053     L29.443,43.233z"></path><path fill="#ff9300" d="M29.451,41.703c-0.002-0.228,0-0.442,0.005-0.651c-0.009-0.016-0.019-0.027-0.014-0.049     c0.008-0.016,0.013-0.033,0.016-0.049l0.002-0.091c-0.001-0.01-0.002-0.021-0.004-0.032l0-0.001     c-0.005-0.017-0.012-0.012-0.019-0.001c-0.005,0.012-0.01,0.023-0.016,0.032c0.004-0.007,0.01-0.02,0.016-0.032     c0.006-0.014,0.01-0.03,0.013-0.049c-0.003-0.028-0.004-0.057-0.002-0.087c0.005,0.033,0.005,0.062,0.002,0.087l0.006,0.052     l0.004,0.015l0.006-0.208c-0.001-0.016-0.003-0.03-0.004-0.044c-0.006-0.05-0.012-0.1,0.01-0.131l0.001-0.037l-0.004,0.007     l0.004-0.014l0.006-0.158c-0.009-0.034-0.019-0.069-0.026-0.104c0,0,0.015-0.024,0.022-0.035     c-0.011-0.014-0.019-0.035-0.022-0.059c-0.013,0.028-0.028,0.054-0.038,0.078c-0.023,0.035,0.045,0.079,0.003,0.121     c0.042-0.042-0.025-0.085-0.003-0.121c0.009-0.024,0.024-0.05,0.038-0.078c-0.008-0.05,0-0.114,0.022-0.166     c0.019,0.064,0.001,0.119-0.022,0.166c0.004,0.024,0.011,0.044,0.022,0.059c-0.007,0.012-0.022,0.035-0.022,0.035     c0.006,0.035,0.017,0.07,0.026,0.104c0.004-0.103,0.008-0.207,0.012-0.313c0.012-0.276,0.018-0.542,0.022-0.81     c0.004-0.251,0.008-0.502,0.013-0.764c0.095-0.051,0.198-0.107,0.304-0.164c0.339-0.181,0.669-0.349,0.996-0.507     c0.652-0.316,1.192-0.698,1.881-0.964c0.263-0.106,0.702-0.384,0.934-0.523c0.276-0.246,0.017-0.319-0.003-0.32     c-0.275-0.032-0.38,0.135-0.821,0.277c0.295-0.107-0.144,0.206-0.453,0.254c-0.451,0.062-0.903,0.482-1.376,0.704     c-0.118,0.055-0.234,0.131-0.37,0.206c-0.232,0.113-0.453,0.234-0.67,0.36c-0.259,0.155-0.518,0.31-0.782,0.469     c0.003,0.196,0.006,0.393,0.009,0.593c0.002,0.148,0.002,0.298,0,0.451c0,0.225,0.042,0.422,0.065,0.611     c0.008,0.138-0.014,0.286-0.014,0.398c0,0.177,0.016,0.329,0.036,0.474c-0.009-0.161-0.017-0.286-0.027-0.463     c-0.003-0.121,0.058,0.084,0.07,0.164c0.01,0.034-0.04,0.088-0.03,0.122c0,0.075,0.02,0.143,0.033,0.223     c0.01,0.034-0.035,0.03-0.03,0.047c0.01,0.109,0.068,0.193,0.056,0.263c-0.007,0.051-0.014,0.1-0.021,0.147     c-0.002,0.029-0.004,0.059-0.003,0.09l0.011,0.059c0.014-0.016,0.031-0.022,0.048-0.027c-0.004,0.025-0.011,0.073-0.015,0.098     c0.004-0.025,0.011-0.073,0.015-0.098c-0.017,0.005-0.034,0.011-0.048,0.027c0.026,0.144,0.05,0.309,0.07,0.463l0.004-0.002     c-0.005-0.09,0-0.178,0.027-0.271c-0.01,0.04-0.022,0.035-0.025-0.011l0.023-0.035c0.013,0.08,0.025,0.16-0.007,0.236     c0,0,0.01,0.034,0.015,0.051c-0.006,0.025-0.02,0.024-0.032,0.03c0.001,0.017,0.002,0.035,0.004,0.053     C29.422,41.821,29.451,41.703,29.451,41.703z"></path><path fill="#ff9300" d="M29.452,40.776c0.001,0.013,0.002,0.028,0.004,0.043l0.006-0.175     C29.44,40.676,29.446,40.726,29.452,40.776z"></path></g><g opacity="0.85"><path fill="#ff9300" d="M33.375,40.521c-0.014-0.009-0.028-0.018-0.041-0.027c0.006,0.007,0.01,0.015,0.013,0.026     C33.353,40.53,33.363,40.524,33.375,40.521z"></path><path fill="#ff9300" d="M33.295,40.469c-0.002-0.002-0.005-0.003-0.007-0.005c-0.003,0-0.006,0-0.008,0     C33.285,40.466,33.29,40.467,33.295,40.469z"></path><path fill="#ff9300" d="M33.215,40.436c0.012,0.01,0.025,0.016,0.039,0.02C33.245,40.448,33.232,40.44,33.215,40.436z"></path><path fill="#ff9300" d="M33.269,40.48c-0.001-0.008,0-0.016,0.01-0.016c0,0,0,0,0,0c-0.008-0.002-0.017-0.005-0.025-0.008     C33.26,40.464,33.265,40.472,33.269,40.48z"></path><path fill="#ff9300" d="M33.269,40.48c0.001,0.008,0.005,0.017,0.006,0.022C33.273,40.495,33.271,40.487,33.269,40.48z"></path><path fill="#ff9300" d="M33.17,40.607c-0.01,0,0.014-0.038-0.006-0.038c-0.041-0.009-0.081-0.009-0.113-0.027     c-0.02,0-0.018-0.057-0.038-0.056c-0.041-0.009-0.16-0.008-0.106,0.02c0.082,0.04,0.139,0.059,0.214,0.092     c0.066,0.017,0.132,0.031,0.199,0.05c0.018,0.008,0.031,0.02,0.045,0.031c-0.017-0.018-0.034-0.036-0.053-0.055     C33.288,40.597,33.223,40.626,33.17,40.607z"></path><path fill="#ff9300" d="M33.674,40.725c-0.01,0-0.03,0-0.03,0c-0.017-0.047-0.058-0.056-0.099-0.065     c0.001,0.009,0.003,0.019,0.004,0.028c0.021,0.009,0.03,0,0.017-0.019c0.027,0.047,0.063,0.073,0.104,0.091     C33.675,40.749,33.682,40.737,33.674,40.725z"></path><path fill="#ff9300" d="M33.696,40.771c-0.008-0.003-0.017-0.007-0.025-0.01c0,0.001-0.001,0.003-0.001,0.004     c0.009,0.003,0.018,0.005,0.026,0.008C33.696,40.772,33.696,40.771,33.696,40.771z"></path><path fill="#ff9300" d="M33.037,40.381c-0.099-0.055-0.191-0.111-0.28-0.167c-0.011,0.004-0.021,0.01-0.028,0     c-0.003-0.011-0.008-0.019-0.013-0.026c-0.013-0.008-0.026-0.017-0.038-0.025c-0.005-0.002-0.01-0.003-0.016-0.005c0,0,0,0,0,0     c-0.01,0-0.011,0.007-0.01,0.016c0.003,0.007,0.005,0.015,0.006,0.022c-0.001-0.005-0.004-0.014-0.006-0.022     c-0.003-0.009-0.008-0.016-0.015-0.023c-0.013-0.005-0.027-0.01-0.039-0.02c0.017,0.004,0.03,0.011,0.039,0.02     c0.009,0.003,0.017,0.005,0.025,0.008c0.003,0,0.006,0,0.008,0c-0.029-0.019-0.058-0.038-0.087-0.058     c-0.007-0.003-0.015-0.006-0.021-0.008c-0.025-0.007-0.05-0.015-0.052-0.041c-0.005-0.003-0.01-0.007-0.015-0.011     c0,0.002,0.001,0.003,0.001,0.005c-0.002-0.003-0.003-0.005-0.004-0.007c-0.022-0.015-0.044-0.03-0.065-0.044     c-0.019-0.001-0.04-0.001-0.058-0.004c0,0-0.003-0.019-0.004-0.028c-0.012,0.006-0.024,0.008-0.037,0.005     c0.006,0.019,0.009,0.038,0.015,0.052c0.004,0.028,0.057-0.019,0.054,0.028c0.003-0.047-0.05,0.001-0.054-0.028     c-0.006-0.014-0.01-0.033-0.015-0.052c-0.026-0.005-0.049-0.029-0.061-0.061c0.037,0,0.052,0.029,0.061,0.061     c0.012,0.003,0.025,0.001,0.037-0.005c0.001,0.009,0.004,0.028,0.004,0.028c0.018,0.003,0.039,0.003,0.058,0.004     c-0.043-0.029-0.086-0.058-0.13-0.088c-0.282-0.196-0.558-0.349-0.854-0.545c-0.16-0.107-0.31-0.216-0.454-0.33     c-0.287-0.226-0.602-0.339-0.861-0.62c-0.101-0.105-0.337-0.216-0.457-0.279c-0.194-0.026-0.21,0.189-0.208,0.202     c0.014,0.198,0.135,0.163,0.283,0.36c-0.106-0.125,0.152-0.035,0.221,0.136c0.097,0.254,0.426,0.286,0.629,0.454     c0.051,0.042,0.115,0.07,0.18,0.112c0.32,0.252,0.681,0.376,1.041,0.6c0.098,0.056,0.204,0.069,0.297,0.096     c0.064,0.028,0.117,0.084,0.165,0.112c0.077,0.044,0.15,0.068,0.223,0.087c-0.075-0.034-0.132-0.053-0.214-0.092     c-0.054-0.028,0.065-0.029,0.106-0.02c0.02,0,0.018,0.057,0.038,0.056c0.032,0.019,0.072,0.018,0.113,0.027     c0.02,0-0.004,0.038,0.006,0.038c0.052,0.018,0.118-0.011,0.142,0.018c0.02,0.019,0.037,0.037,0.053,0.055     c0.012,0.01,0.023,0.019,0.038,0.025c0.01,0.002,0.021,0.003,0.031,0.005c0-0.016,0.006-0.032,0.012-0.048     c0.011,0.009,0.024,0.028,0.035,0.037c-0.011-0.009-0.024-0.028-0.035-0.037c-0.006,0.016-0.012,0.032-0.012,0.048     c0.075,0.013,0.159,0.034,0.236,0.056c0-0.001,0.001-0.003,0.001-0.004c-0.041-0.019-0.077-0.044-0.104-0.091     c0.013,0.019,0.004,0.028-0.017,0.019c-0.001-0.009-0.003-0.019-0.004-0.028c0.041,0.009,0.082,0.018,0.099,0.065     c0,0,0.02,0,0.03,0c0.008,0.012,0,0.024-0.003,0.035c0.008,0.004,0.016,0.007,0.025,0.01     C33.074,40.436,33.037,40.381,33.037,40.381z"></path><path fill="#ff9300" d="M32.637,40.149c0.006,0.002,0.013,0.005,0.021,0.008c-0.024-0.016-0.048-0.033-0.073-0.049     C32.587,40.134,32.612,40.142,32.637,40.149z"></path></g></g><g opacity="0.85"><path fill="#ff9300" d="M29.374,57.593l-0.002,0.098c0.003-0.017,0.008-0.033,0.016-0.05    C29.393,57.621,29.383,57.61,29.374,57.593z"></path><path fill="#ff9300" d="M29.369,57.783l0,0.017l0.004,0.015C29.372,57.804,29.371,57.793,29.369,57.783z"></path><path fill="#ff9300" d="M29.381,57.954c0.003-0.03,0.001-0.059-0.002-0.087C29.376,57.891,29.376,57.92,29.381,57.954z"></path><path fill="#ff9300" d="M29.392,57.817c-0.007,0.011-0.014,0.016-0.019-0.002l0-0.001l0.006,0.052    C29.382,57.848,29.386,57.832,29.392,57.817z"></path><path fill="#ff9300" d="M29.392,57.817c0.006-0.012,0.013-0.025,0.016-0.032C29.402,57.795,29.397,57.806,29.392,57.817z"></path><path fill="#ff9300" d="M29.551,57.861c0.005,0.017-0.04,0.013-0.03,0.047c0.013,0.08,0.033,0.149,0.033,0.224    c0.01,0.034-0.04,0.088-0.03,0.122c0.013,0.08,0.073,0.285,0.07,0.165c-0.007-0.182-0.019-0.3-0.027-0.463    c-0.019-0.131-0.038-0.266-0.056-0.395c-0.002-0.038,0.001-0.073,0.004-0.109c-0.007,0.048-0.013,0.096-0.021,0.147    C29.483,57.667,29.541,57.752,29.551,57.861z"></path><path fill="#ff9300" d="M29.401,56.87c0.005,0.017,0.015,0.051,0.015,0.051c-0.032,0.076-0.02,0.156-0.007,0.237l0.022-0.036    c-0.003-0.046-0.015-0.051-0.025-0.01c0.027-0.093,0.032-0.181,0.027-0.272C29.422,56.845,29.408,56.844,29.401,56.87z"></path><path fill="#ff9300" d="M29.43,56.787c0.001,0.018,0.003,0.036,0.004,0.053l0.004-0.002c-0.002-0.018-0.004-0.036-0.007-0.053    L29.43,56.787z"></path><path fill="#ff9300" d="M29.422,58.317c0.002,0.228,0,0.442-0.005,0.651c0.009,0.016,0.019,0.027,0.014,0.049    c-0.008,0.016-0.013,0.033-0.016,0.049l-0.002,0.091c0.001,0.01,0.002,0.021,0.004,0.032l0,0.001    c0.005,0.017,0.012,0.012,0.019,0.001c0.005-0.012,0.01-0.023,0.016-0.032c-0.004,0.007-0.01,0.02-0.016,0.032    c-0.006,0.014-0.01,0.03-0.013,0.049c0.003,0.028,0.004,0.057,0.002,0.087c-0.005-0.033-0.005-0.062-0.002-0.087l-0.006-0.052    l-0.004-0.015l-0.006,0.208c0.001,0.016,0.003,0.03,0.004,0.044c0.006,0.05,0.012,0.1-0.01,0.131l-0.001,0.037l0.004-0.007    l-0.004,0.014l-0.006,0.158c0.009,0.034,0.019,0.069,0.026,0.104c0,0-0.015,0.024-0.022,0.035    c0.011,0.014,0.019,0.035,0.022,0.059c0.013-0.028,0.028-0.054,0.038-0.078c0.023-0.035-0.045-0.079-0.003-0.121    c-0.042,0.042,0.025,0.085,0.003,0.121c-0.009,0.024-0.024,0.05-0.038,0.078c0.008,0.05,0,0.114-0.022,0.166    c-0.019-0.064-0.001-0.119,0.022-0.166c-0.004-0.024-0.011-0.044-0.022-0.059c0.007-0.012,0.022-0.035,0.022-0.035    c-0.006-0.035-0.017-0.07-0.026-0.104c-0.004,0.103-0.008,0.207-0.012,0.313c-0.012,0.276-0.018,0.542-0.022,0.81    c-0.004,0.285-0.008,0.571-0.013,0.869c0.12,0.073,0.251,0.152,0.385,0.233c0.326,0.204,0.637,0.405,0.937,0.609    c0.599,0.407,1.2,0.684,1.776,1.147c0.223,0.175,0.684,0.416,0.92,0.547c0.351,0.116,0.285-0.145,0.276-0.163    c-0.11-0.254-0.307-0.262-0.651-0.572c0.24,0.202-0.25-0.022-0.446-0.266c-0.279-0.36-0.869-0.541-1.298-0.84    c-0.107-0.075-0.231-0.137-0.364-0.218c-0.214-0.145-0.429-0.275-0.647-0.4c-0.109-0.061-0.219-0.122-0.329-0.184l-0.166-0.091    l-0.021-0.011c-0.002-0.001-0.002,0-0.002,0l-0.003,0l-0.007-0.001l-0.003-0.006l-0.001-0.004l-0.001-0.052    c-0.001-0.073-0.003-0.146-0.004-0.22c-0.002-0.148-0.002-0.298,0-0.451c0-0.225-0.042-0.422-0.065-0.611    c-0.008-0.138,0.014-0.286,0.014-0.398c0-0.177-0.016-0.329-0.036-0.474c0.009,0.161,0.017,0.286,0.027,0.463    c0.003,0.121-0.058-0.084-0.07-0.164c-0.01-0.034,0.04-0.088,0.03-0.122c0-0.075-0.02-0.143-0.033-0.223    c-0.01-0.034,0.035-0.03,0.03-0.047c-0.01-0.109-0.068-0.193-0.056-0.263c0.007-0.051,0.014-0.1,0.021-0.147    c0.002-0.029,0.004-0.059,0.003-0.09l-0.011-0.059c-0.014,0.016-0.031,0.022-0.048,0.027c0.004-0.025,0.011-0.073,0.015-0.098    c-0.004,0.025-0.011,0.073-0.015,0.098c0.017-0.005,0.034-0.011,0.048-0.027c-0.026-0.144-0.05-0.309-0.07-0.463l-0.004,0.002    c0.005,0.09,0,0.178-0.027,0.271c0.01-0.04,0.022-0.035,0.025,0.011l-0.023,0.035c-0.013-0.08-0.025-0.16,0.007-0.236    c0,0-0.01-0.034-0.015-0.051c0.006-0.025,0.02-0.024,0.032-0.03c-0.001-0.017-0.002-0.035-0.004-0.053    C29.451,58.198,29.422,58.317,29.422,58.317z"></path><path fill="#ff9300" d="M29.421,59.243c-0.001-0.013-0.002-0.028-0.004-0.043l-0.006,0.175    C29.433,59.344,29.427,59.293,29.421,59.243z"></path></g><g opacity="0.85"><path fill="#ff9300" d="M53.58,28.599l-0.084-0.051c0.013,0.011,0.024,0.024,0.035,0.039    C53.547,28.601,53.562,28.598,53.58,28.599z"></path><path fill="#ff9300" d="M53.419,28.5l-0.015-0.009l-0.015-0.004C53.399,28.491,53.409,28.496,53.419,28.5z"></path><path fill="#ff9300" d="M53.265,28.424c0.025,0.017,0.051,0.03,0.076,0.042C53.322,28.451,53.297,28.437,53.265,28.424z"></path><path fill="#ff9300" d="M53.378,28.502c-0.006-0.011-0.007-0.02,0.011-0.015l0.001,0l-0.048-0.021    C53.356,28.478,53.368,28.49,53.378,28.502z"></path><path fill="#ff9300" d="M53.378,28.502c0.008,0.012,0.015,0.023,0.019,0.03C53.392,28.522,53.385,28.512,53.378,28.502z"></path><path fill="#ff9300" d="M53.261,28.618c-0.017-0.004,0.009-0.041-0.026-0.05c-0.076-0.029-0.145-0.046-0.21-0.083    c-0.035-0.008-0.056-0.079-0.091-0.087c-0.076-0.029-0.284-0.079-0.178-0.021c0.161,0.085,0.269,0.134,0.415,0.208    c0.123,0.049,0.249,0.1,0.37,0.149c0.034,0.017,0.063,0.038,0.092,0.058c-0.038-0.03-0.076-0.06-0.117-0.091    C53.462,28.656,53.36,28.664,53.261,28.618z"></path><path fill="#ff9300" d="M54.194,28.984c-0.017-0.004-0.052-0.013-0.052-0.013c-0.05-0.066-0.126-0.095-0.201-0.124l0.02,0.037    c0.041,0.021,0.052,0.012,0.022-0.016c0.067,0.07,0.141,0.118,0.222,0.159C54.205,29.014,54.213,29.002,54.194,28.984z"></path><path fill="#ff9300" d="M54.251,29.051c-0.016-0.008-0.032-0.016-0.048-0.023l0,0.004c0.017,0.007,0.033,0.014,0.049,0.021    L54.251,29.051z"></path><path fill="#ff9300" d="M52.93,28.279c-0.198-0.112-0.382-0.221-0.561-0.33c-0.018,0-0.033,0.003-0.049-0.013    c-0.01-0.015-0.022-0.027-0.034-0.038l-0.078-0.048c-0.009-0.004-0.019-0.009-0.03-0.013l-0.001,0    c-0.017-0.004-0.016,0.004-0.011,0.015c0.008,0.01,0.014,0.02,0.02,0.03c-0.004-0.007-0.012-0.018-0.02-0.03    c-0.01-0.012-0.021-0.024-0.036-0.036c-0.026-0.012-0.052-0.025-0.076-0.042c0.032,0.012,0.057,0.027,0.076,0.042l0.048,0.02    l0.015,0.004l-0.177-0.11c-0.014-0.007-0.027-0.013-0.04-0.019c-0.047-0.02-0.093-0.04-0.109-0.074l-0.032-0.02l0.004,0.007    l-0.01-0.011l-0.134-0.084c-0.034-0.01-0.07-0.018-0.103-0.03c0,0-0.013-0.025-0.019-0.037c-0.018,0.003-0.039-0.001-0.062-0.01    c0.018,0.026,0.033,0.052,0.049,0.072c0.019,0.037,0.091,0,0.106,0.058c-0.015-0.058-0.087-0.021-0.106-0.058    c-0.016-0.02-0.031-0.046-0.049-0.072c-0.047-0.018-0.099-0.057-0.133-0.102c0.065,0.016,0.103,0.059,0.133,0.102    c0.023,0.009,0.044,0.012,0.062,0.01c0.006,0.012,0.019,0.037,0.019,0.037c0.034,0.012,0.069,0.02,0.103,0.03    c-0.087-0.055-0.176-0.11-0.266-0.167c-0.233-0.148-0.461-0.286-0.691-0.424c-0.245-0.146-0.49-0.293-0.746-0.446    c-0.123,0.068-0.257,0.141-0.395,0.216c-0.339,0.181-0.669,0.349-0.996,0.507c-0.652,0.316-1.192,0.698-1.881,0.964    c-0.263,0.106-0.702,0.384-0.934,0.523c-0.276,0.246-0.017,0.319,0.003,0.32c0.275,0.032,0.38-0.135,0.821-0.277    c-0.295,0.107,0.144-0.206,0.453-0.254c0.451-0.062,0.903-0.482,1.376-0.704c0.118-0.055,0.234-0.131,0.37-0.206    c0.232-0.113,0.453-0.234,0.67-0.36c0.108-0.064,0.215-0.128,0.323-0.193l0.161-0.098l0.02-0.012    c0.002-0.001,0.001-0.001,0.001-0.001l0.001-0.002l0.004-0.005l0.006,0l0.004,0.001l0.045,0.025l0.192,0.107    c0.129,0.072,0.259,0.147,0.39,0.225c0.195,0.112,0.387,0.174,0.562,0.249c0.124,0.062,0.24,0.155,0.338,0.211    c0.153,0.088,0.293,0.15,0.429,0.206c-0.144-0.072-0.256-0.128-0.415-0.208c-0.106-0.058,0.102-0.008,0.178,0.021    c0.035,0.008,0.056,0.079,0.091,0.087c0.065,0.037,0.134,0.054,0.21,0.083c0.035,0.008,0.009,0.046,0.026,0.05    c0.1,0.046,0.201,0.038,0.256,0.083c0.041,0.032,0.079,0.062,0.117,0.091c0.024,0.017,0.049,0.033,0.076,0.047l0.057,0.02    c-0.007-0.02-0.003-0.037,0.001-0.055c0.02,0.016,0.058,0.046,0.078,0.062c-0.02-0.016-0.058-0.046-0.078-0.062    c-0.004,0.017-0.007,0.035-0.001,0.055c0.138,0.049,0.293,0.111,0.436,0.171l0-0.005c-0.08-0.041-0.154-0.089-0.222-0.159    c0.03,0.029,0.019,0.037-0.022,0.016l-0.019-0.037c0.076,0.029,0.152,0.058,0.201,0.124c0,0,0.035,0.008,0.052,0.013    c0.019,0.018,0.011,0.03,0.009,0.043c0.015,0.008,0.031,0.015,0.048,0.023C53.018,28.363,52.93,28.279,52.93,28.279z"></path><path fill="#ff9300" d="M52.128,27.814c0.012,0.006,0.025,0.012,0.039,0.019l-0.149-0.093    C52.035,27.775,52.082,27.795,52.128,27.814z"></path></g><g opacity="0.85"><path fill="#ff9300" d="M70.486,57.593l-0.002,0.098c0.003-0.017,0.008-0.033,0.016-0.05    C70.505,57.621,70.495,57.61,70.486,57.593z"></path><path fill="#ff9300" d="M70.482,57.783l0,0.017l0.004,0.015C70.484,57.804,70.483,57.793,70.482,57.783z"></path><path fill="#ff9300" d="M70.493,57.954c0.003-0.03,0.001-0.059-0.002-0.087C70.488,57.891,70.488,57.92,70.493,57.954z"></path><path fill="#ff9300" d="M70.504,57.817c-0.007,0.011-0.014,0.016-0.019-0.002l0-0.001l0.006,0.052    C70.494,57.848,70.498,57.832,70.504,57.817z"></path><path fill="#ff9300" d="M70.504,57.817c0.006-0.012,0.013-0.025,0.016-0.032C70.514,57.795,70.509,57.806,70.504,57.817z"></path><path fill="#ff9300" d="M70.663,57.861c0.005,0.017-0.04,0.013-0.03,0.047c0.013,0.08,0.033,0.149,0.033,0.224    c0.01,0.034-0.04,0.088-0.03,0.122c0.013,0.08,0.073,0.285,0.071,0.165c-0.007-0.182-0.019-0.3-0.027-0.463    c-0.019-0.131-0.038-0.266-0.056-0.395c-0.002-0.038,0.001-0.073,0.004-0.109c-0.007,0.048-0.013,0.096-0.021,0.147    C70.595,57.667,70.653,57.752,70.663,57.861z"></path><path fill="#ff9300" d="M70.513,56.87c0.005,0.017,0.015,0.051,0.015,0.051c-0.032,0.076-0.02,0.156-0.007,0.237l0.022-0.036    c-0.003-0.046-0.015-0.051-0.025-0.01c0.027-0.093,0.032-0.181,0.027-0.272C70.534,56.845,70.52,56.844,70.513,56.87z"></path><path fill="#ff9300" d="M70.542,56.787c0.001,0.018,0.003,0.036,0.004,0.053l0.004-0.002c-0.002-0.018-0.004-0.036-0.007-0.053    L70.542,56.787z"></path><path fill="#ff9300" d="M70.534,58.317c0.002,0.228,0,0.442-0.005,0.651c0.009,0.016,0.019,0.027,0.014,0.049    c-0.008,0.016-0.013,0.033-0.016,0.049l-0.002,0.091c0.001,0.01,0.002,0.021,0.004,0.032l0,0.001    c0.005,0.017,0.012,0.012,0.019,0.001c0.005-0.012,0.01-0.023,0.016-0.032c-0.004,0.007-0.01,0.02-0.016,0.032    c-0.006,0.014-0.01,0.03-0.013,0.049c0.003,0.028,0.004,0.057,0.002,0.087c-0.005-0.033-0.005-0.062-0.002-0.087l-0.006-0.052    l-0.004-0.015l-0.006,0.208c0.001,0.016,0.003,0.03,0.004,0.044c0.006,0.05,0.012,0.1-0.01,0.131l-0.001,0.037l0.004-0.007    l-0.004,0.014l-0.006,0.158c0.008,0.034,0.019,0.069,0.026,0.104c0,0-0.015,0.024-0.022,0.035    c0.011,0.014,0.019,0.035,0.022,0.059c0.013-0.028,0.028-0.054,0.038-0.078c0.023-0.035-0.045-0.079-0.003-0.121    c-0.042,0.042,0.025,0.085,0.003,0.121c-0.009,0.024-0.024,0.05-0.038,0.078c0.008,0.05,0,0.114-0.022,0.166    c-0.019-0.064-0.001-0.119,0.022-0.166c-0.004-0.024-0.011-0.044-0.022-0.059c0.007-0.012,0.022-0.035,0.022-0.035    c-0.006-0.035-0.017-0.07-0.026-0.104c-0.004,0.103-0.008,0.207-0.012,0.313c-0.012,0.276-0.018,0.542-0.022,0.81    c-0.004,0.251-0.008,0.502-0.013,0.764c-0.095,0.051-0.198,0.107-0.304,0.164c-0.339,0.181-0.669,0.349-0.996,0.507    c-0.652,0.316-1.192,0.698-1.881,0.964c-0.263,0.106-0.702,0.384-0.934,0.523c-0.276,0.246-0.017,0.319,0.003,0.32    c0.275,0.032,0.38-0.135,0.821-0.277c-0.295,0.107,0.144-0.206,0.453-0.254c0.451-0.062,0.903-0.482,1.376-0.704    c0.118-0.055,0.234-0.131,0.37-0.206c0.232-0.113,0.453-0.234,0.67-0.36c0.259-0.155,0.518-0.31,0.782-0.469    c-0.003-0.196-0.006-0.393-0.009-0.593c-0.002-0.148-0.002-0.298,0-0.451c0-0.225-0.042-0.422-0.065-0.611    c-0.008-0.138,0.014-0.286,0.014-0.398c0-0.177-0.016-0.329-0.036-0.474c0.009,0.161,0.017,0.286,0.027,0.463    c0.003,0.121-0.058-0.084-0.07-0.164c-0.01-0.034,0.04-0.088,0.03-0.122c0-0.075-0.02-0.143-0.033-0.223    c-0.01-0.034,0.035-0.03,0.03-0.047c-0.01-0.109-0.068-0.193-0.056-0.263c0.007-0.051,0.014-0.1,0.021-0.147    c0.002-0.029,0.004-0.059,0.003-0.09l-0.011-0.059c-0.014,0.016-0.031,0.022-0.048,0.027c0.004-0.025,0.011-0.073,0.015-0.098    c-0.004,0.025-0.011,0.073-0.015,0.098c0.017-0.005,0.034-0.011,0.048-0.027c-0.026-0.144-0.05-0.309-0.07-0.463l-0.004,0.002    c0.005,0.09,0,0.178-0.027,0.271c0.01-0.04,0.022-0.035,0.025,0.011l-0.023,0.035c-0.013-0.08-0.025-0.16,0.007-0.236    c0,0-0.01-0.034-0.015-0.051c0.006-0.025,0.02-0.024,0.032-0.03c-0.001-0.017-0.002-0.035-0.004-0.053    C70.563,58.198,70.534,58.317,70.534,58.317z"></path><path fill="#ff9300" d="M70.533,59.243c-0.001-0.013-0.002-0.028-0.004-0.043l-0.006,0.175    C70.545,59.344,70.539,59.293,70.533,59.243z"></path></g><g><g opacity="0.85"><path fill="#ff9300" d="M66.961,36.319l0.084,0.051c-0.013-0.011-0.024-0.024-0.035-0.039     C66.994,36.317,66.979,36.32,66.961,36.319z"></path><path fill="#ff9300" d="M67.122,36.418l0.015,0.009l0.015,0.004C67.142,36.427,67.132,36.422,67.122,36.418z"></path><path fill="#ff9300" d="M67.276,36.494c-0.025-0.017-0.051-0.03-0.076-0.042C67.219,36.467,67.244,36.481,67.276,36.494z"></path><path fill="#ff9300" d="M67.163,36.416c0.006,0.011,0.007,0.02-0.011,0.015l-0.001,0l0.048,0.021     C67.185,36.44,67.173,36.428,67.163,36.416z"></path><path fill="#ff9300" d="M67.163,36.416c-0.008-0.012-0.015-0.023-0.019-0.03C67.149,36.396,67.156,36.406,67.163,36.416z"></path><path fill="#ff9300" d="M67.28,36.3c0.017,0.004-0.009,0.041,0.026,0.05c0.076,0.029,0.145,0.046,0.21,0.083     c0.035,0.008,0.056,0.079,0.091,0.087c0.076,0.029,0.284,0.079,0.178,0.021c-0.161-0.085-0.269-0.134-0.415-0.208     c-0.123-0.049-0.249-0.1-0.37-0.149c-0.034-0.017-0.063-0.038-0.092-0.058c0.038,0.03,0.076,0.06,0.117,0.091     C67.079,36.262,67.181,36.254,67.28,36.3z"></path><path fill="#ff9300" d="M66.347,35.934c0.017,0.004,0.052,0.013,0.052,0.013c0.05,0.066,0.126,0.095,0.201,0.124l-0.02-0.037     c-0.041-0.021-0.052-0.012-0.022,0.016c-0.067-0.07-0.141-0.118-0.222-0.159C66.336,35.904,66.328,35.916,66.347,35.934z"></path><path fill="#ff9300" d="M66.29,35.867c0.016,0.008,0.032,0.016,0.048,0.023l0-0.004c-0.017-0.007-0.033-0.014-0.049-0.021     L66.29,35.867z"></path><path fill="#ff9300" d="M67.611,36.639c0.198,0.112,0.382,0.221,0.561,0.33c0.018,0,0.033-0.003,0.049,0.013     c0.01,0.015,0.022,0.027,0.034,0.038l0.078,0.048c0.009,0.004,0.019,0.009,0.03,0.013l0.001,0     c0.017,0.004,0.016-0.004,0.011-0.015c-0.008-0.01-0.014-0.02-0.02-0.03c0.004,0.007,0.012,0.018,0.02,0.03     c0.01,0.012,0.021,0.024,0.036,0.036c0.026,0.012,0.052,0.025,0.076,0.042c-0.032-0.012-0.057-0.027-0.076-0.042l-0.048-0.02     l-0.015-0.004l0.177,0.11c0.014,0.007,0.027,0.013,0.04,0.019c0.047,0.02,0.093,0.04,0.109,0.074l0.032,0.02l-0.004-0.007     l0.01,0.011l0.134,0.084c0.034,0.01,0.07,0.018,0.103,0.03c0,0,0.013,0.025,0.019,0.037c0.018-0.003,0.039,0.001,0.062,0.01     c-0.018-0.026-0.033-0.052-0.049-0.072c-0.019-0.037-0.091,0-0.106-0.058c0.015,0.058,0.087,0.021,0.106,0.058     c0.016,0.02,0.031,0.046,0.049,0.072c0.047,0.018,0.099,0.057,0.133,0.102c-0.065-0.016-0.103-0.059-0.133-0.102     c-0.023-0.009-0.044-0.012-0.062-0.01c-0.006-0.012-0.019-0.037-0.019-0.037c-0.034-0.012-0.069-0.02-0.103-0.03     c0.087,0.055,0.176,0.11,0.266,0.167c0.233,0.148,0.461,0.286,0.691,0.424c0.215,0.129,0.431,0.258,0.656,0.393     c-0.003,0.108-0.006,0.225-0.01,0.345c-0.013,0.384-0.032,0.754-0.059,1.116c-0.053,0.722,0.008,1.381-0.106,2.111     c-0.04,0.28-0.018,0.8-0.014,1.07c0.075,0.362,0.268,0.174,0.279,0.157c0.165-0.222,0.073-0.396,0.17-0.85     c-0.055,0.309-0.106-0.228,0.007-0.519c0.172-0.422,0.034-1.023,0.078-1.544c0.011-0.13,0.003-0.268,0.007-0.424     c0.019-0.257,0.024-0.509,0.023-0.76c-0.005-0.301-0.01-0.604-0.015-0.912c-0.171-0.095-0.343-0.191-0.518-0.289     c-0.129-0.072-0.259-0.147-0.39-0.225c-0.195-0.112-0.387-0.174-0.562-0.249c-0.124-0.062-0.24-0.155-0.338-0.211     c-0.153-0.088-0.293-0.15-0.429-0.206c0.144,0.072,0.256,0.128,0.415,0.208c0.106,0.058-0.102,0.008-0.178-0.021     c-0.035-0.008-0.056-0.079-0.091-0.087c-0.065-0.037-0.134-0.054-0.21-0.083c-0.035-0.008-0.009-0.046-0.026-0.05     c-0.1-0.046-0.201-0.038-0.256-0.083c-0.041-0.032-0.079-0.062-0.117-0.091c-0.024-0.017-0.049-0.033-0.076-0.047l-0.057-0.02     c0.007,0.02,0.003,0.037-0.001,0.055c-0.02-0.016-0.058-0.046-0.078-0.062c0.02,0.016,0.058,0.046,0.078,0.062     c0.004-0.017,0.007-0.035,0.001-0.055c-0.138-0.049-0.293-0.111-0.436-0.171l0,0.005c0.08,0.041,0.154,0.089,0.222,0.159     c-0.03-0.029-0.019-0.037,0.022-0.016l0.019,0.037c-0.076-0.029-0.152-0.058-0.201-0.124c0,0-0.035-0.008-0.052-0.013     c-0.019-0.018-0.011-0.03-0.009-0.043c-0.015-0.008-0.031-0.015-0.048-0.023C67.523,36.555,67.611,36.639,67.611,36.639z"></path><path fill="#ff9300" d="M68.413,37.104c-0.012-0.006-0.025-0.012-0.039-0.019l0.149,0.093     C68.506,37.143,68.459,37.123,68.413,37.104z"></path></g><g opacity="0.85"><path fill="#ff9300" d="M66.673,40.629c0.014-0.008,0.029-0.015,0.044-0.023c-0.009,0.001-0.018,0.001-0.03-0.002     C66.675,40.605,66.675,40.617,66.673,40.629z"></path><polygon fill="#ff9300" points="66.757,40.585 66.765,40.581 66.769,40.574    "></polygon><path fill="#ff9300" d="M66.825,40.533c-0.014,0.005-0.026,0.014-0.037,0.023C66.801,40.553,66.813,40.546,66.825,40.533z"></path><path fill="#ff9300" d="M66.761,40.557c0.008,0.003,0.014,0.008,0.009,0.017c0,0,0,0,0,0c0.006-0.006,0.013-0.012,0.019-0.018     C66.779,40.558,66.77,40.559,66.761,40.557z"></path><path fill="#ff9300" d="M66.761,40.557c-0.008-0.003-0.018-0.004-0.022-0.006C66.746,40.554,66.753,40.556,66.761,40.557z"></path><path fill="#ff9300" d="M66.7,40.408c0.005-0.009,0.026,0.031,0.035,0.014c0.028-0.031,0.048-0.066,0.08-0.084     c0.01-0.017,0.058,0.013,0.068-0.005c0.028-0.031,0.087-0.135,0.036-0.102c-0.075,0.051-0.12,0.091-0.187,0.139     c-0.048,0.049-0.093,0.099-0.143,0.147c-0.015,0.011-0.032,0.017-0.049,0.023c0.024-0.006,0.048-0.012,0.074-0.019     C66.65,40.516,66.658,40.445,66.7,40.408z"></path><path fill="#ff9300" d="M66.346,40.786c0.005-0.009,0.015-0.026,0.015-0.026c0.049,0.009,0.078-0.022,0.106-0.053     c-0.009-0.004-0.018-0.007-0.027-0.011c-0.019,0.014-0.015,0.026,0.008,0.024c-0.054,0-0.094,0.018-0.131,0.045     C66.325,40.774,66.332,40.787,66.346,40.786z"></path><path fill="#ff9300" d="M66.295,40.782c0.007-0.006,0.014-0.011,0.021-0.016c-0.001-0.001-0.002-0.002-0.003-0.003     c-0.007,0.006-0.013,0.013-0.02,0.019C66.294,40.781,66.295,40.782,66.295,40.782z"></path><path fill="#ff9300" d="M66.962,40.406c0.098-0.058,0.191-0.11,0.284-0.159c0.003-0.012,0.002-0.023,0.014-0.024     c0.011,0.003,0.021,0.003,0.029,0.002c0.014-0.007,0.027-0.014,0.041-0.021c0.004-0.004,0.008-0.007,0.012-0.011c0,0,0,0,0,0     c0.005-0.009-0.001-0.013-0.009-0.017c-0.008-0.001-0.015-0.003-0.022-0.006c0.004,0.002,0.014,0.003,0.022,0.006     c0.009,0.001,0.018,0.001,0.028-0.001c0.011-0.009,0.022-0.018,0.037-0.023c-0.012,0.013-0.024,0.02-0.037,0.023     c-0.007,0.006-0.013,0.012-0.019,0.018c-0.001,0.002-0.003,0.005-0.004,0.007c0.031-0.016,0.062-0.031,0.093-0.047     c0.006-0.005,0.012-0.01,0.017-0.014c0.019-0.018,0.037-0.036,0.062-0.024c0.005-0.003,0.011-0.005,0.017-0.008     c-0.002-0.001-0.003-0.001-0.005-0.002c0.003,0,0.006,0,0.008,0c0.024-0.011,0.047-0.023,0.071-0.034     c0.011-0.016,0.02-0.034,0.032-0.048c0,0,0.018,0.007,0.027,0.011c0.001-0.013,0.006-0.025,0.014-0.034     c-0.019-0.005-0.038-0.011-0.053-0.013c-0.027-0.011-0.012,0.059-0.051,0.033c0.039,0.026,0.024-0.043,0.051-0.033     c0.015,0.002,0.034,0.008,0.053,0.013c0.018-0.019,0.049-0.029,0.083-0.023c-0.018,0.033-0.051,0.03-0.083,0.023     c-0.008,0.009-0.014,0.021-0.014,0.034c-0.009-0.004-0.027-0.011-0.027-0.011c-0.012,0.014-0.022,0.032-0.032,0.048     c0.047-0.022,0.094-0.045,0.141-0.068c0.311-0.146,0.581-0.308,0.899-0.467c0.173-0.085,0.343-0.16,0.513-0.228     c0.339-0.135,0.594-0.352,0.967-0.436c0.141-0.036,0.356-0.184,0.47-0.256c0.119-0.155-0.059-0.276-0.071-0.281     c-0.179-0.087-0.208,0.036-0.453,0.065c0.161-0.03-0.046,0.149-0.228,0.124c-0.269-0.044-0.46,0.226-0.708,0.318     c-0.062,0.023-0.118,0.064-0.187,0.1c-0.378,0.151-0.666,0.401-1.04,0.602c-0.097,0.057-0.162,0.142-0.232,0.209     c-0.056,0.041-0.131,0.059-0.18,0.087c-0.076,0.044-0.134,0.096-0.187,0.15c0.066-0.048,0.112-0.088,0.187-0.139     c0.051-0.033-0.008,0.071-0.036,0.102c-0.01,0.017-0.058-0.013-0.068,0.005c-0.032,0.019-0.052,0.053-0.08,0.084     c-0.01,0.017-0.031-0.023-0.036-0.014c-0.042,0.036-0.05,0.107-0.086,0.114c-0.026,0.007-0.05,0.013-0.074,0.019     c-0.014,0.005-0.028,0.011-0.04,0.02c-0.006,0.008-0.013,0.016-0.02,0.025c0.014,0.008,0.025,0.021,0.035,0.035     c-0.014,0.005-0.036,0.007-0.05,0.012c0.014-0.005,0.036-0.007,0.05-0.012c-0.011-0.013-0.022-0.027-0.035-0.035     c-0.049,0.059-0.109,0.121-0.166,0.176c0.001,0.001,0.002,0.002,0.003,0.003c0.037-0.027,0.077-0.045,0.131-0.045     c-0.022,0.001-0.027-0.011-0.008-0.024c0.009,0.004,0.018,0.007,0.027,0.011c-0.028,0.031-0.057,0.062-0.106,0.053     c0,0-0.01,0.017-0.015,0.026c-0.014,0.001-0.021-0.012-0.029-0.021c-0.007,0.005-0.014,0.011-0.021,0.016     C66.896,40.411,66.962,40.406,66.962,40.406z"></path><path fill="#ff9300" d="M67.364,40.176c-0.005,0.004-0.011,0.009-0.017,0.014c0.026-0.013,0.052-0.026,0.079-0.038     C67.401,40.14,67.382,40.158,67.364,40.176z"></path></g></g></g></svg>
