<svg xmlns="http://www.w3.org/2000/svg" xmlns:xlink="http://www.w3.org/1999/xlink" version="1.1" x="0px" y="0px" viewBox="0 0 100 100" enable-background="new 0 0 100 100" xml:space="preserve"><g><path fill="#ff9300" d="M49.768,5L9.994,28.275v44.193L49.55,95l38.982-22.532V27.585L49.768,5z M84.577,70.186L50.539,89.86v-1.182h-1.978v1.206   L13.95,70.168V30.543L49.772,9.581l34.805,20.277V70.186z"></path><rect fill="#ff9300" x="24.765" y="36.269" transform="matrix(-0.8832 -0.4689 0.4689 -0.8832 33.216 82.7874)" width="4.3" height="1.979"></rect><rect fill="#ff9300" x="32.361" y="40.303" transform="matrix(-0.8833 -0.4688 0.4688 -0.8833 45.6342 93.9436)" width="4.299" height="1.978"></rect><rect fill="#ff9300" x="39.956" y="44.335" transform="matrix(-0.8832 -0.4689 0.4689 -0.8832 58.0428 105.1011)" width="4.3" height="1.978"></rect><rect fill="#ff9300" x="17.169" y="32.237" transform="matrix(-0.8832 -0.469 0.469 -0.8832 20.8 71.6314)" width="4.3" height="1.977"></rect><polygon fill="#ff9300" points="48.267,47.476 47.34,49.223 48.562,49.871 48.562,51.254 50.539,51.254 50.539,49.857 51.759,49.179 50.797,47.45    49.539,48.15  "></polygon><rect fill="#ff9300" x="78.036" y="30.758" transform="matrix(0.486 0.874 -0.874 0.486 69.3501 -52.1669)" width="1.977" height="4.234"></rect><rect fill="#ff9300" x="55.839" y="43.11" transform="matrix(0.4863 0.8738 -0.8738 0.4863 68.7133 -26.4223)" width="1.978" height="4.233"></rect><rect fill="#ff9300" x="63.238" y="38.993" transform="matrix(0.4863 0.8738 -0.8738 0.4863 68.917 -35.003)" width="1.978" height="4.233"></rect><rect fill="#ff9300" x="70.637" y="34.875" transform="matrix(0.4865 0.8737 -0.8737 0.4865 69.1006 -43.583)" width="1.977" height="4.234"></rect><rect fill="#ff9300" x="48.562" y="72.045" width="1.978" height="4.159"></rect><rect fill="#ff9300" x="48.562" y="80.361" width="1.978" height="4.159"></rect><rect fill="#ff9300" x="48.562" y="55.412" width="1.978" height="4.159"></rect><rect fill="#ff9300" x="48.562" y="63.729" width="1.978" height="4.159"></rect></g></svg>
